<?xml version="1.0" encoding="UTF-8"?>
<svg version="1.1" xmlns="http://www.w3.org/2000/svg" width="225" height="225">
<path d="M0 0 C74.25 0 148.5 0 225 0 C225 74.25 225 148.5 225 225 C150.75 225 76.5 225 0 225 C0 150.75 0 76.5 0 0 Z " fill="#FCFCFC" transform="translate(0,0)"/>
<path d="M0 0 C1.80791016 0.01933594 1.80791016 0.01933594 3.65234375 0.0390625 C4.90660156 0.07257812 6.16085938 0.10609375 7.453125 0.140625 C8.72285156 0.15867188 9.99257812 0.17671875 11.30078125 0.1953125 C14.43565577 0.24245347 17.5690106 0.30824836 20.703125 0.390625 C20.703125 3.030625 20.703125 5.670625 20.703125 8.390625 C21.363125 8.390625 22.023125 8.390625 22.703125 8.390625 C22.703125 19.940625 22.703125 31.490625 22.703125 43.390625 C17.815 43.4525 12.926875 43.514375 7.890625 43.578125 C5.58227661 43.61909302 5.58227661 43.61909302 3.22729492 43.66088867 C2.01662354 43.66838135 0.80595215 43.67587402 -0.44140625 43.68359375 C-1.68253174 43.6993042 -2.92365723 43.71501465 -4.20239258 43.73120117 C-7.296875 43.390625 -7.296875 43.390625 -9.19824219 42.37402344 C-10.9584396 39.19628037 -10.74415671 35.90423661 -10.73046875 32.36328125 C-10.7357106 31.57795517 -10.74095245 30.79262909 -10.74635315 29.98350525 C-10.75277322 28.3234068 -10.7514365 26.66326285 -10.74291992 25.00317383 C-10.73441641 22.46548225 -10.76315735 19.93004686 -10.79492188 17.39257812 C-10.79653419 15.77864651 -10.79595577 14.16471091 -10.79296875 12.55078125 C-10.80420273 11.7933815 -10.81543671 11.03598175 -10.82701111 10.25563049 C-10.78255681 6.88748397 -10.52992588 4.74438838 -8.65942383 1.9050293 C-5.58512336 -0.06561096 -3.63765891 -0.06863507 0 0 Z " fill="#22B9C4" transform="translate(77.296875,53.609375)"/>
<path d="M0 0 C3.92670595 2.11438013 6.63262715 4.23125126 9 8 C9.79971931 12.03858253 9.9504267 16.21567402 7.98046875 19.9140625 C4.84903607 23.7550343 2.19941613 25.86006812 -2.75 26.4375 C-6.90249579 26.33771729 -9.36475703 24.9107488 -12.65234375 22.484375 C-14.25964921 20.71400956 -14.60644644 19.3314312 -15 17 C-17.02045442 17.60183749 -19.02111039 18.27306096 -21 19 C-22.90851068 22.81702136 -22.28987806 27.83702492 -22.34179688 32.08398438 C-22.54574075 37.82761291 -23.63724475 41.29692949 -27 46 C-30.47340907 48.85750561 -34.21633467 49.89190823 -38.625 50.5 C-43.89155748 49.71976926 -46.80195881 47.32755916 -50.3125 43.4375 C-52.93612539 39.64781888 -53.1153849 36.80771645 -53.0625 32.3125 C-53.05347656 31.31863281 -53.04445313 30.32476562 -53.03515625 29.30078125 C-53.02355469 28.54152344 -53.01195313 27.78226563 -53 27 C-50.03 27 -47.06 27 -44 27 C-43.96261719 27.84304687 -43.92523438 28.68609375 -43.88671875 29.5546875 C-43.82097656 30.65039062 -43.75523438 31.74609375 -43.6875 32.875 C-43.60048828 34.51082031 -43.60048828 34.51082031 -43.51171875 36.1796875 C-43.34285156 37.11039063 -43.17398438 38.04109375 -43 39 C-40.17431454 41.32038095 -40.17431454 41.32038095 -36.9375 40.8125 C-33.70259047 40.26245502 -33.70259047 40.26245502 -32 37 C-31.73148413 34.98816194 -31.73148413 34.98816194 -31.796875 32.796875 C-31.78527344 31.98089844 -31.77367188 31.16492188 -31.76171875 30.32421875 C-31.75397738 28.62369759 -31.76150344 26.92303053 -31.78515625 25.22265625 C-31.66962206 19.56148109 -30.55950405 16.53482487 -26.67675781 12.38378906 C-22.83931244 9.21683502 -19.93970483 8.77546796 -15 9 C-14.79375 8.2575 -14.5875 7.515 -14.375 6.75 C-11.36825153 0.73650307 -6.41324855 -0.91617836 0 0 Z " fill="#28203D" transform="translate(148,75)"/>
<path d="M0 0 C5.28 0 10.56 0 16 0 C20.87386189 11.37234441 21.65025425 21.38338064 17.25390625 33.1171875 C13.08105214 42.71085208 7.39918739 51.30560531 -2.5625 55.5 C-3.7690625 55.7475 -3.7690625 55.7475 -5 56 C-5.59271199 52.83886939 -5.72796385 50.14795177 -5 47 C-2.96340126 44.70229885 -0.74235831 42.94477032 1.66796875 41.046875 C6.16511275 37.09963303 8.76671798 31.81089937 10 26 C10.07708723 24.63199181 10.10803609 23.26076408 10.09765625 21.890625 C10.09443359 21.13652344 10.09121094 20.38242187 10.08789062 19.60546875 C10.07951172 18.82816406 10.07113281 18.05085938 10.0625 17.25 C10.05798828 16.45722656 10.05347656 15.66445313 10.04882812 14.84765625 C10.03708565 12.89840492 10.01915146 10.94919262 10 9 C6.7 8.67 3.4 8.34 0 8 C0 5.36 0 2.72 0 0 Z " fill="#28213C" transform="translate(110,37)"/>
<path d="M0 0 C11 0 11 0 14.1875 1 C16.32325177 3.35669161 16.25551524 4.04749562 16.25 7.125 C16.1675 8.40375 16.085 9.6825 16 11 C16.33 11.33 16.66 11.66 17 12 C17.38603114 15.47428028 17.50108423 17.31514405 15.40234375 20.18359375 C10.8965963 23.59037841 5.43079009 22.2172316 0 22 C0 14.74 0 7.48 0 0 Z " fill="#2FBDC7" transform="translate(77,143)"/>
<path d="M0 0 C1.98 0 3.96 0 6 0 C6.33 2.31 6.66 4.62 7 7 C7.66 6.34 8.32 5.68 9 5 C12.0625 4.8125 12.0625 4.8125 15 5 C15.33 5.33 15.66 5.66 16 6 C15.6913753 8.33672984 15.35543427 10.66993089 15 13 C15 16.79557881 15.50178941 18.62902617 17 22 C14.36 22 11.72 22 9 22 C8.34 20.35 7.68 18.7 7 17 C6.67 18.65 6.34 20.3 6 22 C4.02 22 2.04 22 0 22 C0 14.74 0 7.48 0 0 Z " fill="#18B7C1" transform="translate(131,143)"/>
<path d="M0 0 C1.90625 0.4140625 1.90625 0.4140625 4.40625 1.9765625 C6.48325386 5.35169378 6.38544182 7.51207196 5.90625 11.4140625 C4.74985194 13.72685861 3.73215172 15.58816078 1.90625 17.4140625 C-5.13221154 17.99098558 -5.13221154 17.99098558 -8.59375 15.9140625 C-10.68845675 12.42288459 -10.83685088 9.32308277 -10.09375 5.4140625 C-7.66648285 0.55952819 -5.16162506 -0.36593611 0 0 Z " fill="#33BEC7" transform="translate(123.09375,147.5859375)"/>
<path d="M0 0 C3.00890835 2.5575721 3.86893157 4.10124505 4.4375 8 C3.94702329 11.36326885 3.01736344 13.28431844 1 16 C-2.20229442 17.60114721 -5.52500237 17.48323075 -9 17 C-11 15.5625 -11 15.5625 -12 13 C-12.62645561 8.6782493 -12.73848547 5.26157935 -10.5 1.4375 C-6.96933849 -0.59263037 -3.97223041 -0.93607889 0 0 Z " fill="#20B9C3" transform="translate(108,148)"/>
<path d="M0 0 C5.28 0 10.56 0 16 0 C16 2.64 16 5.28 16 8 C12.7 8.33 9.4 8.66 6 9 C5.67 9.99 5.34 10.98 5 12 C2.36 12 -0.28 12 -3 12 C-2.51855059 7.18550592 -2.1991413 4.39828259 0 0 Z " fill="#241C39" transform="translate(73,37)"/>
<path d="M0 0 C7.59 0 15.18 0 23 0 C23 1.32 23 2.64 23 4 C22.01 4 21.02 4 20 4 C20 6.97 20 9.94 20 13 C19.236875 12.649375 18.47375 12.29875 17.6875 11.9375 C14.95240621 10.67639116 14.95240621 10.67639116 12 12 C12 9.36 12 6.72 12 4 C8.37 4 4.74 4 1 4 C0.67 2.68 0.34 1.36 0 0 Z " fill="#EDF8F8" transform="translate(71,58)"/>
<path d="M0 0 C2.3125 0.4375 2.3125 0.4375 3.3125 1.4375 C3.0038753 3.77422984 2.66793427 6.10743089 2.3125 8.4375 C2.3125 12.23307881 2.81428941 14.06652617 4.3125 17.4375 C1.6725 17.4375 -0.9675 17.4375 -3.6875 17.4375 C-5.30497033 13.77123391 -6.52323411 10.46201419 -6.6875 6.4375 C-3.89310748 0.63376168 -3.89310748 0.63376168 0 0 Z " fill="#30BDC6" transform="translate(143.6875,147.5625)"/>
<path d="M0 0 C3 0.25 3 0.25 5 2.25 C4.42307692 8.82692308 4.42307692 8.82692308 3 10.25 C0.0625 10.4375 0.0625 10.4375 -3 10.25 C-5 8.25 -5 8.25 -5.25 5.25 C-4.90584825 1.120179 -4.129821 0.34415175 0 0 Z " fill="#241E39" transform="translate(98,177.75)"/>
<path d="M0 0 C3.375 -0.125 3.375 -0.125 7 0 C9 2 9 2 9.25 5 C9 8 9 8 7 10 C3.375 10.125 3.375 10.125 0 10 C0 6.7 0 3.4 0 0 Z " fill="#454154" transform="translate(83,178)"/>
<path d="M0 0 C3 0.125 3 0.125 4 1.125 C4.1875 4.5625 4.1875 4.5625 4 8.125 C2 10.125 2 10.125 -0.5 10.375 C-3 10.125 -3 10.125 -5 8.125 C-4.30300807 0.179292 -4.30300807 0.179292 0 0 Z " fill="#14102B" transform="translate(127,177.875)"/>
<path d="M0 0 C4.55555556 0.55555556 4.55555556 0.55555556 6 2 C6.25 4.9375 6.25 4.9375 6 8 C3 10 3 10 0.9375 9.75 C-1 9 -1 9 -3 7 C-2.67028521 3.70285207 -2.3773161 2.3773161 0 0 Z " fill="#EDEDEE" transform="translate(143,83)"/>
<path d="M0 0 C2.31 0 4.62 0 7 0 C8.125 3.75 8.125 3.75 7 6 C7.39938767 8.09821215 7.39938767 8.09821215 8 10 C7.01 10 6.02 10 5 10 C4.67 9.34 4.34 8.68 4 8 C3.67 8.66 3.34 9.32 3 10 C2.01 10 1.02 10 0 10 C0 6.7 0 3.4 0 0 Z " fill="#252138" transform="translate(133,178)"/>
<path d="M0 0 C0.78375 0.04125 1.5675 0.0825 2.375 0.125 C2.705 1.115 3.035 2.105 3.375 3.125 C2.055 3.125 0.735 3.125 -0.625 3.125 C-0.625 4.445 -0.625 5.765 -0.625 7.125 C0.695 7.455 2.015 7.785 3.375 8.125 C3.045 8.785 2.715 9.445 2.375 10.125 C0 10.25 0 10.25 -2.625 10.125 C-4.625 8.125 -4.625 8.125 -4.875 5.125 C-4.55416156 1.2749387 -3.94115238 0.18767392 0 0 Z " fill="#1A162F" transform="translate(108.625,177.875)"/>
<path d="M0 0 C2.64 0 5.28 0 8 0 C8 0.66 8 1.32 8 2 C7.34 2 6.68 2 6 2 C6 4.64 6 7.28 6 10 C5.01 10 4.02 10 3 10 C3 7.36 3 4.72 3 2 C2.01 2 1.02 2 0 2 C0 1.34 0 0.68 0 0 Z " fill="#1B162D" transform="translate(113,178)"/>
<path d="M0 0 C0.66 0.33 1.32 0.66 2 1 C2 3.31 2 5.62 2 8 C0.35 8 -1.3 8 -3 8 C-3.33 6.35 -3.66 4.7 -4 3 C-2.68 2.01 -1.36 1.02 0 0 Z " fill="#757182" transform="translate(129,178)"/>
<path d="M0 0 C1.65 0.99 3.3 1.98 5 3 C4.67 4.65 4.34 6.3 4 8 C2.68 7.34 1.36 6.68 0 6 C-0.66 6.66 -1.32 7.32 -2 8 C-2.125 5.125 -2.125 5.125 -2 2 C-1.34 1.34 -0.68 0.68 0 0 Z " fill="#898691" transform="translate(95,178)"/>
<path d="M0 0 C0.66 0.33 1.32 0.66 2 1 C2 3.31 2 5.62 2 8 C1.01 8 0.02 8 -1 8 C-1.04241723 5.66705225 -1.04092937 3.33297433 -1 1 C-0.67 0.67 -0.34 0.34 0 0 Z " fill="#D9F3F3" transform="translate(103,152)"/>
<path d="M0 0 C0.2475 0.639375 0.495 1.27875 0.75 1.9375 C1.81562433 4.18741541 1.81562433 4.18741541 4.125 4.75 C4.74375 4.8325 5.3625 4.915 6 5 C5.67 5.66 5.34 6.32 5 7 C3.35 7 1.7 7 0 7 C-1.33332095 4.3333581 -0.67102033 2.83319697 0 0 Z " fill="#0E0B25" transform="translate(106,181)"/>
<path d="M0 0 C1.68762851 1.6454378 3.3540349 3.31288577 5 5 C5 5.33 5 5.66 5 6 C3.35 6 1.7 6 0 6 C-1.125 2.25 -1.125 2.25 0 0 Z " fill="#150F2C" transform="translate(95,182)"/>
</svg>
